<?xml version="1.0" standalone="no"?>
<!DOCTYPE svg PUBLIC "-//W3C//DTD SVG 20010904//EN"
 "http://www.w3.org/TR/2001/REC-SVG-20010904/DTD/svg10.dtd">
<svg version="1.0" xmlns="http://www.w3.org/2000/svg"
 width="404.000000pt" height="404.000000pt" viewBox="0 0 404.000000 404.000000"
 preserveAspectRatio="xMidYMid meet">
<g transform="translate(0.000000,404.000000) scale(0.100000,-0.100000)"
fill="#c69e6b" stroke="none">
<path d="M3647 3704 c-1 -1 -58 -5 -127 -9 -140 -8 -168 -10 -225 -19 -22 -4
-69 -11 -105 -16 -36 -5 -76 -12 -90 -15 -14 -2 -38 -7 -55 -11 -196 -39 -593
-163 -700 -218 -17 -9 -34 -16 -38 -16 -4 0 -60 -25 -123 -55 -483 -229 -891
-545 -1212 -938 -68 -83 -68 -84 -81 -173 -7 -49 -15 -99 -18 -111 l-5 -23
-17 23 c-9 12 -21 31 -27 42 -16 30 -29 25 -85 -30 -90 -88 -130 -160 -189
-340 -50 -154 -41 -140 -72 -116 -15 12 -29 17 -32 13 -3 -5 -6 -43 -8 -85 -2
-74 -3 -76 -30 -82 -21 -5 -29 -14 -33 -38 -3 -18 -7 -45 -10 -62 -14 -83 -25
-320 -15 -308 4 4 35 55 71 113 58 95 208 323 248 376 9 12 23 32 31 44 46 69
279 367 325 416 6 6 31 35 56 64 121 142 332 354 504 506 234 207 548 428 810
571 129 70 277 145 280 141 2 -2 -44 -33 -103 -68 -190 -115 -525 -344 -647
-441 -74 -60 -289 -241 -330 -279 -70 -64 -332 -326 -385 -386 -55 -61 -248
-289 -275 -325 -558 -734 -737 -1050 -911 -1607 -7 -23 -9 -40 -4 -37 14 9
130 155 130 164 0 8 21 53 147 321 l44 95 202 80 c111 43 209 82 217 86 8 4
66 27 129 52 l113 44 -48 12 c-27 7 -56 15 -64 18 -8 4 -21 7 -28 9 -8 1 -16
4 -18 6 -2 2 115 46 261 98 145 52 262 96 261 98 -4 3 -102 19 -165 26 -24 3
-45 7 -48 9 -4 5 298 82 308 80 5 -2 75 71 222 231 16 17 77 82 135 145 59 63
115 123 125 135 10 12 64 70 120 130 56 60 109 117 117 126 14 16 181 196 258
278 17 19 32 38 32 41 0 4 -102 26 -227 50 -208 40 -293 61 -238 59 22 -1 207
11 270 17 22 2 81 7 130 10 50 3 113 8 140 11 54 5 59 9 160 128 28 32 62 73
77 90 35 39 35 44 1 52 -16 3 -46 11 -68 16 l-40 11 125 41 c159 53 203 75
267 133 29 27 101 90 162 142 69 59 107 98 104 107 -3 8 -11 14 -18 14 -7 0
-17 6 -23 13 -9 10 31 31 186 96 108 46 217 93 242 104 25 11 101 44 170 74
l125 53 -183 -2 c-101 -2 -184 -4 -185 -4z"/>
</g>
</svg>